<svg width="800" height="600" viewBox="0 0 800 600" xmlns="http://www.w3.org/2000/svg">
  <defs>
    <linearGradient id="heroGrad" x1="0%" y1="0%" x2="100%" y2="100%">
      <stop offset="0%" style="stop-color:#667eea;stop-opacity:1" />
      <stop offset="100%" style="stop-color:#764ba2;stop-opacity:1" />
    </linearGradient>
  </defs>
  <rect width="800" height="600" fill="url(#heroGrad)"/>
  
  <!-- Code symbols -->
  <text x="100" y="150" fill="white" font-family="monospace" font-size="24" opacity="0.3">&lt;/&gt;</text>
  <text x="650" y="200" fill="white" font-family="monospace" font-size="20" opacity="0.3">{}</text>
  <text x="150" y="450" fill="white" font-family="monospace" font-size="18" opacity="0.3">( )</text>
  <text x="600" y="500" fill="white" font-family="monospace" font-size="22" opacity="0.3">[ ]</text>
  
  <!-- Central design -->
  <circle cx="400" cy="300" r="120" fill="none" stroke="white" stroke-width="3" opacity="0.6"/>
  <circle cx="400" cy="300" r="80" fill="none" stroke="white" stroke-width="2" opacity="0.4"/>
  <circle cx="400" cy="300" r="40" fill="none" stroke="white" stroke-width="2" opacity="0.6"/>
  <circle cx="400" cy="300" r="8" fill="white" opacity="0.8"/>
  
  <!-- Connecting lines -->
  <line x1="320" y1="300" x2="280" y2="300" stroke="white" stroke-width="2" opacity="0.5"/>
  <line x1="480" y1="300" x2="520" y2="300" stroke="white" stroke-width="2" opacity="0.5"/>
  <line x1="400" y1="220" x2="400" y2="180" stroke="white" stroke-width="2" opacity="0.5"/>
  <line x1="400" y1="380" x2="400" y2="420" stroke="white" stroke-width="2" opacity="0.5"/>
  
  <!-- Corner elements -->
  <rect x="260" y="280" width="40" height="40" rx="5" fill="white" opacity="0.2"/>
  <rect x="500" y="280" width="40" height="40" rx="5" fill="white" opacity="0.2"/>
  <rect x="380" y="160" width="40" height="40" rx="5" fill="white" opacity="0.2"/>
  <rect x="380" y="400" width="40" height="40" rx="5" fill="white" opacity="0.2"/>
  
  <text x="400" y="520" text-anchor="middle" fill="white" font-family="Arial, sans-serif" font-size="32" font-weight="bold">Modern Web Solutions</text>
  <text x="400" y="550" text-anchor="middle" fill="white" font-family="Arial, sans-serif" font-size="18" opacity="0.8">Professional Development & Design</text>
</svg>